<svg xmlns="http://www.w3.org/2000/svg" width="23" height="23" viewBox="0 0 23 23" fill="none">
  <g clip-path="url(#clip0_491_625)">
    <rect width="21.7778" height="21.7778" transform="translate(0.930664 0.805664)" fill="white" style="mix-blend-mode:multiply"/>
    <path d="M7.73862 1.20566H16.5576C18.5459 1.20566 20.1576 2.81744 20.1576 4.80566V18.5834C20.1576 20.5717 18.5459 22.1834 16.5576 22.1834H7.73862V1.20566Z" stroke="#333333" stroke-width="0.8"/>
    <mask id="path-2-inside-1_491_625" fill="white">
      <path d="M3.0813 4.80567C3.0813 2.59653 4.87216 0.805664 7.0813 0.805664H8.47034V22.5834H7.0813C4.87216 22.5834 3.0813 20.7926 3.0813 18.5834V4.80567Z"/>
    </mask>
    <path d="M2.2813 4.80566C2.2813 2.1547 4.43033 0.00566405 7.0813 0.00566405H8.47034V1.60566H7.0813C5.31399 1.60566 3.8813 3.03835 3.8813 4.80566H2.2813ZM8.47034 23.3834H7.0813C4.43033 23.3834 2.2813 21.2344 2.2813 18.5834H3.8813C3.8813 20.3508 5.31399 21.7834 7.0813 21.7834H8.47034V23.3834ZM7.0813 23.3834C4.43033 23.3834 2.2813 21.2344 2.2813 18.5834V4.80566C2.2813 2.1547 4.43033 0.00566405 7.0813 0.00566405V1.60566C5.31399 1.60566 3.8813 3.03835 3.8813 4.80566V18.5834C3.8813 20.3508 5.31399 21.7834 7.0813 21.7834V23.3834ZM8.47034 0.805664V22.5834V0.805664Z" fill="#333333" mask="url(#path-2-inside-1_491_625)"/>
  </g>
  <defs>
    <clipPath id="clip0_491_625">
      <rect width="21.7778" height="21.7778" fill="white" transform="translate(0.930664 0.805664)"/>
    </clipPath>
  </defs>
</svg>