<svg width="22" height="22" viewBox="0 0 22 22" fill="none" xmlns="http://www.w3.org/2000/svg">
<g clip-path="url(#clip0_535_3829)">
<rect width="21.7778" height="21.7778" fill="white" style="mix-blend-mode:multiply"/>
<path d="M6.80802 0.4H15.627C17.6153 0.4 19.227 2.01177 19.227 4V17.7778C19.227 19.766 17.6153 21.3778 15.627 21.3778H6.80802V0.4Z" stroke="#1AAB0E" stroke-width="0.8"/>
<mask id="path-2-inside-1_535_3829" fill="white">
<path d="M2.1507 4C2.1507 1.79086 3.94156 0 6.15069 0H7.53974V21.7778H6.1507C3.94156 21.7778 2.1507 19.9869 2.1507 17.7778V4Z"/>
</mask>
<path d="M1.3507 4C1.3507 1.34903 3.49973 -0.8 6.1507 -0.8H7.53974V0.8H6.1507C4.38338 0.8 2.9507 2.23269 2.9507 4L1.3507 4ZM7.53974 22.5778H6.1507C3.49973 22.5778 1.3507 20.4287 1.3507 17.7778L2.9507 17.7778C2.9507 19.5451 4.38338 20.9778 6.1507 20.9778H7.53974V22.5778ZM6.1507 22.5778C3.49973 22.5778 1.3507 20.4287 1.3507 17.7778V4C1.3507 1.34903 3.49973 -0.8 6.1507 -0.8L6.1507 0.8C4.38338 0.8 2.9507 2.23269 2.9507 4V17.7778C2.9507 19.5451 4.38338 20.9778 6.1507 20.9778L6.1507 22.5778ZM7.53974 0V21.7778V0Z" fill="#1AAB0E" mask="url(#path-2-inside-1_535_3829)"/>
</g>
<defs>
<clipPath id="clip0_535_3829">
<rect width="21.7778" height="21.7778" fill="white"/>
</clipPath>
</defs>
</svg>
