<svg xmlns="http://www.w3.org/2000/svg" width="23" height="25" viewBox="0 0 23 25" fill="none">
  <g clip-path="url(#clip0_57_256)">
    <rect width="21.7778" height="24.5" transform="translate(0.611084 0.444458)" fill="white" style="mix-blend-mode:multiply"/>
    <path d="M19.9944 9.63981C19.9944 12.0014 18.8149 15.6837 17.1125 18.7916C16.2645 20.3398 15.3002 21.72 14.3126 22.7071C13.3135 23.7057 12.3497 24.2436 11.5 24.2436C10.6502 24.2436 9.68647 23.7057 8.68737 22.7071C7.69972 21.72 6.7355 20.3398 5.88747 18.7916C4.18509 15.6837 3.00553 12.0014 3.00553 9.63981C3.00553 4.94845 6.80862 1.14536 11.5 1.14536C16.1913 1.14536 19.9944 4.94845 19.9944 9.63981Z" stroke="#333333" stroke-width="0.8"/>
    <path d="M15.6704 9.5724C15.6704 11.8756 13.8032 13.7428 11.5 13.7428C9.19674 13.7428 7.3296 11.8756 7.3296 9.5724C7.3296 7.26916 9.19674 5.40201 11.5 5.40201C13.8032 5.40201 15.6704 7.26916 15.6704 9.5724Z" stroke="#333333" stroke-width="0.8"/>
  </g>
  <defs>
    <clipPath id="clip0_57_256">
      <rect width="21.7778" height="24.5" fill="white" transform="translate(0.611084 0.444458)"/>
    </clipPath>
  </defs>
</svg>