<svg xmlns="http://www.w3.org/2000/svg" width="23" height="25" viewBox="0 0 23 25" fill="none">
  <g clip-path="url(#clip0_498_562)">
    <rect width="21.7778" height="24.5" transform="translate(0.611084 0.444336)" fill="white" style="mix-blend-mode:multiply"/>
    <path d="M19.9944 9.63956C19.9944 12.0011 18.8148 15.6834 17.1124 18.7914C16.2644 20.3396 15.3002 21.7197 14.3125 22.7069C13.3134 23.7054 12.3497 24.2433 11.4999 24.2433C10.6501 24.2433 9.68641 23.7054 8.68731 22.7069C7.69966 21.7197 6.73544 20.3396 5.88741 18.7914C4.18503 15.6834 3.00547 12.0011 3.00547 9.63956C3.00547 4.94821 6.80856 1.14512 11.4999 1.14512C16.1913 1.14512 19.9944 4.94821 19.9944 9.63956Z" stroke="#333333" stroke-width="0.8"/>
    <path d="M15.6702 9.5721C15.6702 11.8753 13.8031 13.7425 11.4998 13.7425C9.19659 13.7425 7.32944 11.8753 7.32944 9.5721C7.32944 7.26885 9.19659 5.40171 11.4998 5.40171C13.8031 5.40171 15.6702 7.26885 15.6702 9.5721Z" stroke="#333333" stroke-width="0.8"/>
  </g>
  <defs>
    <clipPath id="clip0_498_562">
      <rect width="21.7778" height="24.5" fill="white" transform="translate(0.611084 0.444336)"/>
    </clipPath>
  </defs>
</svg>