<svg width="22" height="25" viewBox="0 0 22 25" fill="none" xmlns="http://www.w3.org/2000/svg">
<g clip-path="url(#clip0_535_3824)">
<rect width="21.7778" height="24.5" fill="white" style="mix-blend-mode:multiply"/>
<path d="M19.3833 9.19535C19.3833 11.5569 18.2038 15.2392 16.5014 18.3472C15.6534 19.8954 14.6892 21.2755 13.7015 22.2627C12.7024 23.2612 11.7387 23.7991 10.8889 23.7991C10.0391 23.7991 9.07539 23.2612 8.07629 22.2627C7.08863 21.2755 6.12442 19.8954 5.27638 18.3472C3.57401 15.2392 2.39445 11.5569 2.39445 9.19535C2.39445 4.504 6.19754 0.700903 10.8889 0.700903C15.5802 0.700903 19.3833 4.504 19.3833 9.19535Z" stroke="#1AAB0E" stroke-width="0.8"/>
<path d="M15.0593 9.12794C15.0593 11.4312 13.1922 13.2983 10.8889 13.2983C8.58569 13.2983 6.71854 11.4312 6.71854 9.12794C6.71854 6.8247 8.58569 4.95756 10.8889 4.95756C13.1922 4.95756 15.0593 6.8247 15.0593 9.12794Z" stroke="#1AAB0E" stroke-width="0.8"/>
</g>
<defs>
<clipPath id="clip0_535_3824">
<rect width="21.7778" height="24.5" fill="white"/>
</clipPath>
</defs>
</svg>
