<svg width="22" height="22" viewBox="0 0 22 22" fill="none" xmlns="http://www.w3.org/2000/svg">
<g clip-path="url(#clip0_535_3834)">
<rect width="21.7778" height="21.7778" fill="white" style="mix-blend-mode:multiply"/>
<mask id="path-1-inside-1_535_3834" fill="white">
<path fill-rule="evenodd" clip-rule="evenodd" d="M14.2332 10.8211C15.5635 9.81045 16.4225 8.21156 16.4225 6.41204C16.4225 3.35594 13.945 0.878479 10.8889 0.878479C7.83281 0.878479 5.35535 3.35594 5.35535 6.41204C5.35535 8.21242 6.21515 9.81198 7.54655 10.8225C3.74479 12.3668 0.1723 16.3472 0.1723 21.5554H21.6056C21.6056 16.3337 18.0342 12.3616 14.2332 10.8211Z"/>
</mask>
<path d="M14.2332 10.8211L13.7492 10.184C13.5202 10.358 13.4022 10.6415 13.4402 10.9266C13.4781 11.2117 13.6662 11.4545 13.9327 11.5625L14.2332 10.8211ZM7.54655 10.8225L7.84763 11.5637C8.11403 11.4555 8.30186 11.2126 8.33962 10.9276C8.37738 10.6425 8.25925 10.3591 8.03021 10.1853L7.54655 10.8225ZM0.1723 21.5554H-0.6277C-0.6277 21.9972 -0.269528 22.3554 0.1723 22.3554L0.1723 21.5554ZM21.6056 21.5554V22.3554C22.0474 22.3554 22.4056 21.9972 22.4056 21.5554H21.6056ZM15.6225 6.41204C15.6225 7.95091 14.889 9.31818 13.7492 10.184L14.7171 11.4581C16.238 10.3027 17.2225 8.47221 17.2225 6.41204H15.6225ZM10.8889 1.67848C13.5032 1.67848 15.6225 3.79777 15.6225 6.41204H17.2225C17.2225 2.91411 14.3868 0.078479 10.8889 0.078479V1.67848ZM6.15535 6.41204C6.15535 3.79777 8.27464 1.67848 10.8889 1.67848V0.078479C7.39098 0.078479 4.55535 2.91411 4.55535 6.41204H6.15535ZM8.03021 10.1853C6.88952 9.31949 6.15535 7.95164 6.15535 6.41204H4.55535C4.55535 8.4732 5.54079 10.3045 7.06288 11.4597L8.03021 10.1853ZM7.24546 10.0813C3.20024 11.7246 -0.6277 15.9632 -0.6277 21.5554H0.9723C0.9723 16.7313 4.28934 13.0091 7.84763 11.5637L7.24546 10.0813ZM0.1723 22.3554H21.6056V20.7554H0.1723V22.3554ZM22.4056 21.5554C22.4056 15.9497 18.5789 11.7192 14.5337 10.0796L13.9327 11.5625C17.4896 13.0041 20.8056 16.7177 20.8056 21.5554H22.4056Z" fill="#1AAB0E" mask="url(#path-1-inside-1_535_3834)"/>
</g>
<defs>
<clipPath id="clip0_535_3834">
<rect width="21.7778" height="21.7778" fill="white"/>
</clipPath>
</defs>
</svg>
