<svg width="200" height="244" viewBox="0 0 200 244" fill="none" xmlns="http://www.w3.org/2000/svg">
<path d="M125.51 177.134C124.175 179.907 125.341 183.239 128.114 184.574L161.189 200.502L166.026 190.453L132.951 174.526C130.178 173.191 126.845 174.357 125.51 177.131V177.134Z" fill="white" stroke="black" stroke-width="1.51054" stroke-linecap="round" stroke-linejoin="round"/>
<path d="M147.144 117.295C150.691 115.676 153.99 121.77 155.244 125.201C155.978 123.223 156.815 121.289 157.763 119.492C163.615 108.398 170.654 104.833 174.37 105.631C178.086 106.429 181.545 111.199 176.038 118.519C174.325 120.797 172.902 123.86 170.337 126.981C172.603 124.996 174.609 123.383 175.772 122.383C179.666 119.042 185.191 114.945 190.04 116.144C194.889 117.344 193.463 124.918 189.557 128.032C187.971 129.295 184.747 131.899 181.473 134.549C186.373 131.803 191.421 130.546 193.001 134.065C195.859 140.428 187.913 143.781 180.216 149.503C172.518 155.228 165.739 164.013 158.833 160.488C150.519 158.533 146.265 152.307 146.135 144.364C146.005 136.422 146.292 131.948 144.38 128.588C142.467 125.229 142.978 119.196 147.144 117.295Z" fill="white" stroke="black" stroke-width="1.51054" stroke-linecap="round" stroke-linejoin="round"/>
<path d="M181.473 134.549C181.473 134.549 174.823 138.996 172.128 140.86L181.473 134.549Z" fill="white"/>
<path d="M181.473 134.549C181.473 134.549 174.823 138.996 172.128 140.86" stroke="black" stroke-width="1.51054" stroke-linecap="round" stroke-linejoin="round"/>
<path d="M46.0922 25.8987L40.7691 27.4213L39.2465 22.0982C38.6694 20.0801 38.4942 17.9684 38.7329 15.8869C38.9716 13.8023 39.6181 11.7843 40.6362 9.95048C41.6543 8.11669 43.0228 6.50042 44.6663 5.19531C46.3098 3.89021 48.1919 2.92045 50.21 2.34342L55.5331 0.820801L57.0557 6.14393C58.2219 10.2163 57.7203 14.5878 55.663 18.2917C53.6056 21.9955 50.1616 24.7326 46.0892 25.8987H46.0922Z" fill="white"/>
<path d="M48.5786 25.8565C47.8445 26.1828 47.0892 26.4577 46.3158 26.6812L40.9927 28.2039C40.7842 28.2643 40.5607 28.2371 40.3734 28.1314C40.183 28.0256 40.0441 27.8504 39.9837 27.642L38.461 22.3188C37.8538 20.198 37.6725 17.9806 37.9233 15.7873C38.174 13.597 38.8538 11.4762 39.9262 9.54875C40.9957 7.6213 42.4368 5.92346 44.1648 4.55189C45.8929 3.18033 47.8717 2.16222 49.9925 1.55499L55.3156 0.0323686C55.4183 0.00215791 55.5271 -0.00690531 55.6328 0.00517898C55.7385 0.0172633 55.8412 0.0504951 55.9349 0.101853C56.0286 0.153212 56.1101 0.222696 56.1766 0.307286C56.2431 0.391876 56.2914 0.488551 56.3216 0.591267L57.8442 5.9144C58.953 9.79647 58.6297 13.9474 56.9258 17.612C55.225 21.2735 52.2613 24.2009 48.5786 25.8565ZM41.331 26.4094L45.8687 25.1103C53.9078 22.8113 58.5753 14.4036 56.2763 6.36454L54.9772 1.82689L50.4396 3.12293C48.5242 3.66974 46.7357 4.58815 45.1769 5.82679C43.618 7.06543 42.3159 8.59711 41.3492 10.3403C40.3824 12.0804 39.7691 13.9958 39.5426 15.9746C39.316 17.9534 39.4821 19.9563 40.0289 21.8717L41.331 26.4124V26.4094Z" fill="#1AAB0E"/>
<path d="M41.1016 28.1616C40.9445 28.2311 40.7693 28.2523 40.6031 28.216C40.437 28.1798 40.2829 28.0952 40.1651 27.9683C40.0503 27.8414 39.9747 27.6813 39.9566 27.5121C39.9355 27.3429 39.9717 27.1707 40.0533 27.0197L50.5848 8.04431C50.6361 7.95066 50.7056 7.86909 50.7902 7.80262C50.8748 7.73616 50.9714 7.68782 51.0742 7.65761C51.1769 7.6274 51.2857 7.61834 51.3914 7.63042C51.4971 7.64251 51.5998 7.67574 51.6935 7.7271C51.7872 7.77846 51.8687 7.84794 51.9352 7.93253C52.0016 8.01712 52.05 8.11379 52.0802 8.21651C52.1104 8.31923 52.1195 8.42799 52.1074 8.53372C52.0953 8.63946 52.062 8.74218 52.0107 8.83583L41.4792 27.8112C41.3946 27.9653 41.2617 28.0891 41.0986 28.1616H41.1016Z" fill="#1AAB0E"/>
<path d="M11.105 20.6631L15.7937 17.7146C19.3797 15.4578 23.718 14.7207 27.8478 15.6632C31.9776 16.6058 35.5666 19.1496 37.8234 22.7356L40.7719 27.4243L36.0832 30.3728C32.4972 32.6296 28.1589 33.3667 24.0291 32.4242C19.8993 31.4816 16.3103 28.9378 14.0536 25.3518L11.105 20.6631Z" fill="white"/>
<path d="M34.3914 32.1915C30.6997 33.8289 26.5427 34.0827 22.6817 32.9045C18.8178 31.7263 15.5097 29.1976 13.3587 25.7808L10.4101 21.0951C10.3527 21.0045 10.3135 20.9018 10.2953 20.796C10.2772 20.6903 10.2802 20.5815 10.3044 20.4788C10.3286 20.3731 10.3709 20.2764 10.4343 20.1888C10.4977 20.1012 10.5763 20.0257 10.6669 19.9683L15.3556 17.0197C17.2227 15.8445 19.3012 15.05 21.4763 14.6814C23.6515 14.3098 25.875 14.3732 28.026 14.8627C30.177 15.3521 32.2102 16.2614 34.0077 17.5363C35.8083 18.8112 37.337 20.4305 38.5122 22.2945L41.4607 26.9802C41.5755 27.1645 41.6148 27.385 41.5665 27.5965C41.5181 27.8079 41.3882 27.9922 41.2039 28.107L36.5182 31.0556C35.8385 31.4846 35.1286 31.8622 34.3944 32.1885L34.3914 32.1915ZM12.2288 20.9169L14.7424 24.9138C19.1924 31.9891 28.5698 34.125 35.6452 29.675L39.642 27.1614L37.1285 23.1646C32.6754 16.0892 23.298 13.9533 16.2257 18.4033L12.2288 20.9169Z" fill="#1AAB0E"/>
<path d="M41.1012 28.1647C40.9411 28.2372 40.7599 28.2553 40.5877 28.2161L19.4281 23.3944C19.3223 23.3703 19.2257 23.328 19.1381 23.2645C19.0505 23.2011 18.9749 23.1225 18.9175 23.0319C18.8027 22.8476 18.7634 22.6271 18.8118 22.4156C18.8601 22.2041 18.99 22.0199 19.1743 21.9051C19.3586 21.7903 19.5791 21.751 19.7906 21.7993L40.9502 26.6179C41.1164 26.6572 41.2674 26.7448 41.3822 26.8747C41.497 27.0046 41.5665 27.1647 41.5816 27.3339C41.5997 27.5031 41.5604 27.6753 41.4759 27.8233C41.3882 27.9714 41.2583 28.0892 41.1012 28.1587V28.1647Z" fill="#1AAB0E"/>
<path d="M57.7231 65.3782C57.5268 65.4658 57.2911 65.4537 57.0736 65.3419C56.8561 65.2301 56.6718 65.0277 56.56 64.78L39.7326 27.0981C39.6209 26.8504 39.5937 26.5785 39.6571 26.3429C39.7175 26.1072 39.8656 25.9229 40.062 25.8353C40.2583 25.7477 40.4939 25.7598 40.7115 25.8716C40.929 25.9834 41.1133 26.1858 41.2251 26.4335L58.0524 64.1153C58.1642 64.3631 58.1914 64.635 58.1279 64.8706C58.0675 65.1063 57.9195 65.2905 57.7231 65.3782Z" fill="#1AAB0E"/>
<path d="M87.7589 196.472C132.978 196.472 169.636 159.814 169.636 114.594C169.636 69.3749 132.978 32.7173 87.7589 32.7173C42.5395 32.7173 5.88184 69.3749 5.88184 114.594C5.88184 159.814 42.5395 196.472 87.7589 196.472Z" fill="#1AAB0E"/>
<path d="M85.4841 116.924C99.154 116.924 110.236 101.549 110.236 82.5832C110.236 63.6175 99.154 48.2427 85.4841 48.2427C71.8141 48.2427 60.7324 63.6175 60.7324 82.5832C60.7324 101.549 71.8141 116.924 85.4841 116.924Z" fill="white" stroke="black" stroke-width="1.51054" stroke-miterlimit="10"/>
<path d="M93.4293 110.15C102.276 110.15 109.447 100.201 109.447 87.9273C109.447 75.6539 102.276 65.7043 93.4293 65.7043C84.583 65.7043 77.4116 75.6539 77.4116 87.9273C77.4116 100.201 84.583 110.15 93.4293 110.15Z" fill="black"/>
<path d="M98.2782 76.8522C99.8817 76.8522 101.181 75.5523 101.181 73.9489C101.181 72.3455 99.8817 71.0457 98.2782 71.0457C96.6748 71.0457 95.375 72.3455 95.375 73.9489C95.375 75.5523 96.6748 76.8522 98.2782 76.8522Z" fill="white"/>
<path d="M102.807 81.556C103.706 81.556 104.435 80.827 104.435 79.9277C104.435 79.0284 103.706 78.2993 102.807 78.2993C101.907 78.2993 101.178 79.0284 101.178 79.9277C101.178 80.827 101.907 81.556 102.807 81.556Z" fill="white"/>
<path d="M134.984 116.924C148.654 116.924 159.736 101.549 159.736 82.5832C159.736 63.6175 148.654 48.2427 134.984 48.2427C121.314 48.2427 110.232 63.6175 110.232 82.5832C110.232 101.549 121.314 116.924 134.984 116.924Z" fill="white" stroke="black" stroke-width="1.51054" stroke-miterlimit="10"/>
<path d="M127.06 110.15C135.906 110.15 143.077 100.201 143.077 87.9273C143.077 75.6539 135.906 65.7043 127.06 65.7043C118.213 65.7043 111.042 75.6539 111.042 87.9273C111.042 100.201 118.213 110.15 127.06 110.15Z" fill="black"/>
<path d="M133.585 75.6649C134.705 75.6649 135.612 74.7573 135.612 73.6377C135.612 72.5182 134.705 71.6106 133.585 71.6106C132.466 71.6106 131.558 72.5182 131.558 73.6377C131.558 74.7573 132.466 75.6649 133.585 75.6649Z" fill="white"/>
<path d="M82.2482 135.062C74.6865 135.062 67.4661 130.67 64.2396 123.313C64.0342 122.842 64.2487 122.295 64.717 122.087C65.1883 121.881 65.7351 122.096 65.9435 122.564C67.8498 126.911 71.3361 130.256 75.759 131.984C80.1818 133.709 85.0125 133.609 89.3598 131.703C89.8311 131.497 90.378 131.712 90.5864 132.18C90.7918 132.651 90.5773 133.198 90.1091 133.407C87.5502 134.528 84.8796 135.059 82.2513 135.059L82.2482 135.062Z" fill="black"/>
<path d="M45.6236 117.854C41.8322 116.942 39.7597 123.552 39.1857 127.162C38.0861 125.359 36.8957 123.621 35.6208 122.038C27.757 112.268 18.9717 108.969 15.4764 110.462C11.981 111.957 8.77258 117.329 15.576 123.461C17.6938 125.371 22.742 128.778 24.7087 131.79C22.1046 130.277 19.8297 129.074 18.4944 128.316C14.0323 125.782 7.82698 122.815 3.29537 124.918C-1.23624 127.02 1.61262 134.183 6.04151 136.494C7.83905 137.434 11.5036 139.37 15.2226 141.346C9.88734 139.588 4.69412 139.319 3.81498 143.074C2.2259 149.866 10.6638 151.639 19.3131 155.787C27.9624 159.935 36.2946 167.264 42.4032 162.485C50.1915 158.977 53.1763 152.053 51.7866 144.231C50.3969 136.41 50.2428 132.198 51.4784 128.537C52.7141 124.872 50.0736 118.924 45.6236 117.854Z" fill="white" stroke="black" stroke-width="1.51054" stroke-linecap="round" stroke-linejoin="round"/>
<path d="M80.4508 177.599C77.5234 178.557 75.9282 181.708 76.8889 184.632L88.3147 219.519L98.9126 216.048L87.4869 181.161C86.5292 178.233 83.3782 176.638 80.4538 177.599H80.4508Z" fill="white" stroke="black" stroke-width="1.51054" stroke-linecap="round" stroke-linejoin="round"/>
<path d="M91.7891 204.039C85.8768 211.498 80.7682 227.489 94.4143 241.232L132.108 191.695C132.108 191.695 113.779 176.294 91.7891 204.039Z" fill="#BDBDBD"/>
<path d="M131.803 191.456C125.232 186.284 114.846 190.783 103.345 205.402C91.8435 220.021 87.8435 236.063 94.4174 241.232C100.988 246.404 115.64 238.745 127.145 224.126C138.646 209.507 138.377 196.629 131.806 191.456H131.803Z" fill="black" stroke="black" stroke-width="1.51054" stroke-miterlimit="10"/>
<path d="M168.784 219.063L198.617 173.928C198.617 173.928 183.998 163.128 169.717 181.919C155.437 200.713 159.627 211.695 161.358 214.154C163.086 216.616 168.784 219.063 168.784 219.063Z" fill="#BDBDBD"/>
<path d="M180.693 194.52C172.388 206.958 167.174 217.988 168.787 219.063C170.4 220.139 178.231 210.858 186.536 198.42C194.841 185.982 200.264 175.025 198.65 173.949C197.037 172.871 188.998 182.082 180.693 194.52Z" fill="black" stroke="black" stroke-width="1.51054" stroke-miterlimit="10"/>
</svg>
