<svg width="390" height="272" viewBox="0 0 390 272" fill="none" xmlns="http://www.w3.org/2000/svg">
<rect width="390" height="272" fill="white"/>
<g clip-path="url(#clip0_569_4471)">
<path d="M178.165 208.447C174.906 208.447 172.262 211.089 172.262 214.35V256.953H184.064V214.35C184.064 211.092 181.423 208.447 178.161 208.447H178.165Z" fill="white" stroke="black" stroke-width="1.59884" stroke-linecap="round" stroke-linejoin="round"/>
<path d="M210.276 208.447C207.018 208.447 204.373 211.089 204.373 214.35V256.953H216.176V214.35C216.176 211.092 213.534 208.447 210.273 208.447H210.276Z" fill="white" stroke="black" stroke-width="1.59884" stroke-linecap="round" stroke-linejoin="round"/>
<path d="M200.744 270.255H258.012C258.012 270.255 259.016 251.044 234.09 249.403C209.161 247.763 201.911 257.871 200.744 260.835C199.577 263.799 200.744 270.255 200.744 270.255Z" fill="#BDBDBD"/>
<path d="M132.876 270.255H190.143C190.143 270.255 191.148 251.044 166.222 249.403C141.292 247.763 134.043 257.871 132.876 260.835C131.709 263.799 132.876 270.255 132.876 270.255Z" fill="#BDBDBD"/>
<path d="M200.699 22.0255L194.896 21.2005L195.721 15.3967C196.034 13.1967 196.776 11.0831 197.908 9.17084C199.04 7.25863 200.533 5.58944 202.311 4.25601C204.086 2.92257 206.107 1.95048 208.259 1.40048C210.411 0.847277 212.649 0.725766 214.846 1.03914L220.646 1.86414L219.821 7.66793C219.188 12.1095 216.819 16.1162 213.234 18.8087C209.646 21.5011 205.138 22.6587 200.699 22.0287V22.0255Z" fill="white"/>
<path d="M203.119 23.0552C202.268 23.0552 201.418 22.9944 200.577 22.8729L194.773 22.0479C194.546 22.016 194.341 21.8944 194.204 21.7122C194.066 21.5299 194.009 21.2997 194.041 21.0726L194.866 15.272C195.195 12.9601 195.975 10.7377 197.165 8.72959C198.355 6.72144 199.925 4.96592 201.792 3.56213C203.659 2.16155 205.783 1.14149 208.043 0.559511C210.304 -0.0192692 212.658 -0.150374 214.97 0.178987L220.77 1.00399C220.882 1.01998 220.991 1.05835 221.09 1.11591C221.189 1.17347 221.272 1.25021 221.343 1.33975C221.41 1.42928 221.461 1.5348 221.49 1.64353C221.519 1.75225 221.525 1.86736 221.509 1.97928L220.684 7.77988C220.08 12.0104 217.975 15.8828 214.749 18.6872C211.523 21.4915 207.398 23.0424 203.122 23.052L203.119 23.0552ZM195.873 20.4619L200.82 21.1654C209.582 22.4125 217.72 16.3017 218.967 7.54005L219.67 2.59324L214.727 1.88655C212.639 1.58916 210.515 1.70428 208.472 2.2287C206.429 2.75312 204.513 3.67405 202.825 4.93714C201.14 6.20342 199.72 7.78627 198.646 9.60256C197.571 11.4156 196.868 13.4238 196.57 15.5119L195.87 20.4619H195.873Z" fill="#1AAB0E"/>
<path d="M194.898 22.0577C194.716 22.0577 194.54 22.0001 194.393 21.8946C194.246 21.7891 194.134 21.6388 194.076 21.4661C194.019 21.2934 194.016 21.108 194.07 20.9353C194.124 20.7626 194.23 20.6091 194.377 20.5004L212.748 6.70561C212.837 6.63845 212.943 6.58729 213.052 6.55851C213.16 6.52973 213.275 6.52334 213.387 6.53933C213.499 6.55532 213.608 6.59369 213.707 6.65125C213.806 6.7088 213.889 6.78555 213.96 6.87508C214.027 6.96462 214.078 7.07014 214.107 7.17886C214.136 7.28758 214.142 7.4027 214.126 7.51462C214.11 7.62654 214.072 7.73526 214.014 7.83439C213.956 7.93352 213.88 8.01666 213.79 8.087L195.42 21.8786C195.269 21.9905 195.09 22.0513 194.901 22.0513L194.898 22.0577Z" fill="#1AAB0E"/>
<path d="M169.144 1.86443L174.947 1.03943C179.389 0.406286 183.898 1.56704 187.482 4.25949C191.07 6.95194 193.44 10.9586 194.069 15.4002L194.894 21.204L189.091 22.029C184.649 22.6621 180.14 21.5014 176.556 18.8089C172.968 16.1165 170.599 12.1098 169.969 7.66822L169.144 1.86443Z" fill="white"/>
<path d="M186.675 23.0554C182.399 23.0458 178.274 21.495 175.048 18.6906C171.821 15.8862 169.717 12.0138 169.113 7.78329L168.288 1.9827C168.272 1.87078 168.278 1.75566 168.307 1.64694C168.336 1.53822 168.384 1.4327 168.454 1.34316C168.521 1.25363 168.608 1.17688 168.707 1.11933C168.806 1.06177 168.911 1.0234 169.027 1.00741L174.83 0.182405C177.142 -0.146956 179.496 -0.0158512 181.756 0.562929C184.017 1.14171 186.141 2.16177 188.008 3.56555C189.875 4.96614 191.449 6.72166 192.635 8.733C193.825 10.7411 194.605 12.9667 194.934 15.2755L195.759 21.0761C195.791 21.3031 195.734 21.5333 195.596 21.7156C195.459 21.8979 195.254 22.0194 195.027 22.0513L189.223 22.8795C188.382 22.9979 187.532 23.0586 186.681 23.0586L186.675 23.0554ZM170.12 2.59346L170.824 7.54027C172.071 16.2987 180.212 22.4127 188.97 21.1656L193.917 20.4621L193.214 15.5153C191.963 6.75684 183.822 0.642871 175.067 1.88997L170.12 2.59346Z" fill="#1AAB0E"/>
<path d="M194.895 22.0577C194.707 22.0577 194.527 21.9969 194.377 21.885L176.006 8.09341C175.917 8.02626 175.84 7.93992 175.783 7.84079C175.725 7.74166 175.687 7.63614 175.671 7.52102C175.639 7.29399 175.696 7.06375 175.834 6.88149C175.971 6.69922 176.176 6.57771 176.403 6.54573C176.63 6.51375 176.86 6.57131 177.043 6.70881L195.413 20.5004C195.557 20.6091 195.666 20.7626 195.72 20.9353C195.775 21.108 195.771 21.2934 195.714 21.4661C195.656 21.6388 195.548 21.7891 195.397 21.8946C195.25 22.0001 195.074 22.0577 194.892 22.0577H194.895Z" fill="#1AAB0E"/>
<path d="M194.899 65.2006C194.668 65.2006 194.451 65.0855 194.288 64.884C194.125 64.6826 194.035 64.4076 194.035 64.1198V20.4395C194.035 20.1517 194.125 19.8799 194.288 19.6752C194.451 19.4738 194.668 19.3586 194.899 19.3586C195.129 19.3586 195.346 19.4738 195.509 19.6752C195.672 19.8767 195.762 20.1517 195.762 20.4395V64.1198C195.762 64.4076 195.672 64.6794 195.509 64.884C195.346 65.0855 195.129 65.2006 194.899 65.2006Z" fill="#1AAB0E"/>
<path d="M194.895 222.137C242.758 222.137 281.559 183.336 281.559 135.473C281.559 87.6102 242.758 48.8096 194.895 48.8096C147.032 48.8096 108.231 87.6102 108.231 135.473C108.231 183.336 147.032 222.137 194.895 222.137Z" fill="#1AAB0E"/>
<path d="M169.563 137.939C184.032 137.939 195.761 121.665 195.761 101.59C195.761 81.516 184.032 65.2424 169.563 65.2424C155.094 65.2424 143.364 81.516 143.364 101.59C143.364 121.665 155.094 137.939 169.563 137.939Z" fill="white" stroke="black" stroke-width="1.59884" stroke-miterlimit="10"/>
<path d="M177.973 130.769C187.336 130.769 194.927 120.238 194.927 107.247C194.927 94.2561 187.336 83.7249 177.973 83.7249C168.609 83.7249 161.019 94.2561 161.019 107.247C161.019 120.238 168.609 130.769 177.973 130.769Z" fill="black"/>
<path d="M183.105 95.5244C184.802 95.5244 186.178 94.1485 186.178 92.4514C186.178 90.7542 184.802 89.3784 183.105 89.3784C181.408 89.3784 180.032 90.7542 180.032 92.4514C180.032 94.1485 181.408 95.5244 183.105 95.5244Z" fill="white"/>
<path d="M187.901 100.503C188.853 100.503 189.625 99.7314 189.625 98.7795C189.625 97.8276 188.853 97.0559 187.901 97.0559C186.949 97.0559 186.178 97.8276 186.178 98.7795C186.178 99.7314 186.949 100.503 187.901 100.503Z" fill="white"/>
<path d="M221.96 137.939C236.429 137.939 248.159 121.665 248.159 101.59C248.159 81.516 236.429 65.2424 221.96 65.2424C207.491 65.2424 195.762 81.516 195.762 101.59C195.762 121.665 207.491 137.939 221.96 137.939Z" fill="white" stroke="black" stroke-width="1.59884" stroke-miterlimit="10"/>
<path d="M209.205 81.1028C209.205 81.1028 226.591 96.1159 241.476 101.59C256.361 107.065 263.626 108.494 263.626 108.494" stroke="black" stroke-width="1.59884" stroke-linecap="round" stroke-linejoin="round"/>
<path d="M213.573 130.769C222.937 130.769 230.527 120.238 230.527 107.247C230.527 94.2561 222.937 83.7249 213.573 83.7249C204.21 83.7249 196.619 94.2561 196.619 107.247C196.619 120.238 204.21 130.769 213.573 130.769Z" fill="black"/>
<path d="M220.48 94.2644C221.665 94.2644 222.625 93.3038 222.625 92.1188C222.625 90.9338 221.665 89.9731 220.48 89.9731C219.295 89.9731 218.334 90.9338 218.334 92.1188C218.334 93.3038 219.295 94.2644 220.48 94.2644Z" fill="white"/>
<path d="M128.115 167.053C127.149 165.023 125.848 162.797 125.432 161.349C125.016 159.9 125.125 151.084 120.69 148.03C112.434 142.345 99.7324 158.154 99.7324 176.848C99.7324 195.541 108.664 206.976 117.834 201.617C124.028 197.997 125.493 191.279 125.461 184.586C126.455 184.497 127.424 184.244 128.345 183.806C133.935 181.149 131.728 174.648 128.118 167.05L128.115 167.053Z" fill="white" stroke="black" stroke-width="1.46454" stroke-linecap="round" stroke-linejoin="round"/>
<path d="M269.062 148.03C264.627 151.084 264.253 159.583 264.32 161.349C264.387 163.114 262.881 165.378 261.637 167.053C256.629 173.81 255.82 181.152 261.41 183.809C262.328 184.247 263.3 184.5 264.294 184.589C264.262 191.285 265.727 198 271.921 201.62C281.092 206.979 290.023 195.548 290.023 176.851C290.023 158.154 277.318 142.348 269.065 148.033L269.062 148.03Z" fill="white" stroke="black" stroke-width="1.46454" stroke-linecap="round" stroke-linejoin="round"/>
<path d="M190.146 146.854L196.619 142.553L206.909 148.507" stroke="black" stroke-width="1.59884" stroke-linecap="round" stroke-linejoin="round"/>
<path d="M182.018 81.1028C182.018 81.1028 164.632 96.1159 149.747 101.59C134.862 107.065 127.597 108.494 127.597 108.494" stroke="black" stroke-width="1.59884" stroke-linecap="round" stroke-linejoin="round"/>
</g>
<defs>
<clipPath id="clip0_569_4471">
<rect width="191.755" height="271.055" fill="white" transform="translate(99)"/>
</clipPath>
</defs>
</svg>
