<svg width="32" height="32" viewBox="0 0 32 32" fill="none" xmlns="http://www.w3.org/2000/svg">
<g id="&#237;&#128;&#180;&#236;&#166;&#136;">
<circle id="Ellipse 41" cx="16" cy="16" r="16" fill="#1AAB0E"/>
<path id="Q" d="M15.4375 18.7469H17.275L18.7093 20.8666C19.7218 19.8597 20.3593 18.1746 20.3687 15.8853C20.3593 11.9214 18.4562 9.78055 16 9.78055C13.5437 9.78055 11.6406 11.9214 11.6313 15.8853C11.6406 19.8385 13.5437 21.9794 16 21.99C16.5062 21.99 16.9937 21.8946 17.4437 21.7145L15.4375 18.7469ZM10 15.8853C9.99065 11.0312 12.5125 8 16 8C19.4781 8 22.0093 11.0312 21.9999 15.8853C22.0093 18.7575 21.1281 20.9832 19.6843 22.3292L21.4562 25H19.6187L18.4375 23.2089C17.7062 23.5798 16.8812 23.7706 16 23.7706C12.5125 23.7706 9.99065 20.7394 10 15.8853Z" fill="white"/>
</g>
</svg>
