<svg width="390" height="272" viewBox="0 0 390 272" fill="none" xmlns="http://www.w3.org/2000/svg">
<g clip-path="url(#clip0_564_4318)">
<path d="M187.843 208.433C184.587 208.433 181.944 211.073 181.944 214.332V256.907H193.739V214.332C193.739 211.076 191.1 208.433 187.84 208.433H187.843Z" fill="white" stroke="black" stroke-width="1.5978" stroke-linecap="round" stroke-linejoin="round"/>
<path d="M219.934 208.433C216.678 208.433 214.035 211.073 214.035 214.332V256.907H225.83V214.332C225.83 211.076 223.191 208.433 219.931 208.433H219.934Z" fill="white" stroke="black" stroke-width="1.5978" stroke-linecap="round" stroke-linejoin="round"/>
<path d="M210.407 270.201H267.637C267.637 270.201 268.641 251.002 243.731 249.363C218.818 247.723 211.573 257.825 210.407 260.787C209.241 263.749 210.407 270.201 210.407 270.201Z" fill="#BDBDBD"/>
<path d="M142.585 270.201H199.815C199.815 270.201 200.818 251.002 175.909 249.363C150.996 247.723 143.751 257.825 142.585 260.787C141.418 263.749 142.585 270.201 142.585 270.201Z" fill="#BDBDBD"/>
<path d="M206.509 22.0113L200.709 21.1868L201.533 15.3868C201.847 13.1882 202.588 11.0759 203.719 9.16496C204.85 7.25399 206.343 5.58588 208.12 4.25332C209.893 2.92075 211.913 1.94929 214.063 1.39964C216.214 0.846804 218.451 0.725371 220.646 1.03854L226.443 1.86301L225.619 7.66303C224.986 12.1017 222.618 16.1058 219.036 18.7965C215.45 21.4872 210.945 22.644 206.509 22.0145V22.0113Z" fill="white"/>
<path d="M208.931 23.0402C208.081 23.0402 207.23 22.9795 206.39 22.8581L200.59 22.0336C200.363 22.0016 200.159 21.8802 200.021 21.6981C199.884 21.5159 199.826 21.2858 199.858 21.0589L200.683 15.2621C201.012 12.9517 201.792 10.7308 202.98 8.72392C204.169 6.71708 205.738 4.96269 207.604 3.55982C209.471 2.16015 211.592 1.14075 213.852 0.559149C216.111 -0.0192556 218.463 -0.150275 220.773 0.178872L226.57 1.00334C226.682 1.01932 226.791 1.05766 226.89 1.11518C226.989 1.1727 227.072 1.2494 227.142 1.33888C227.209 1.42835 227.261 1.53381 227.289 1.64246C227.318 1.75111 227.324 1.86615 227.308 1.978L226.484 7.77482C225.88 12.0026 223.777 15.8725 220.553 18.675C217.329 21.4776 213.206 23.0274 208.934 23.037L208.931 23.0402ZM201.689 20.4486L206.633 21.1516C215.389 22.3979 223.522 16.2911 224.768 7.53515L225.471 2.59155L220.531 1.88532C218.444 1.58813 216.322 1.70317 214.28 2.22725C212.238 2.75133 210.324 3.67167 208.637 4.93393C206.952 6.19939 205.534 7.78121 204.46 9.59632C203.386 11.4082 202.683 13.4151 202.386 15.5018L201.686 20.4486H201.689Z" fill="#1AAB0E"/>
<path d="M200.712 22.0432C200.53 22.0432 200.354 21.9857 200.207 21.8802C200.06 21.7748 199.948 21.6246 199.891 21.452C199.833 21.2794 199.83 21.0941 199.885 20.9215C199.939 20.749 200.044 20.5956 200.191 20.4869L218.55 6.7011C218.64 6.63399 218.745 6.58286 218.854 6.5541C218.962 6.52534 219.077 6.51895 219.189 6.53493C219.301 6.5509 219.41 6.58925 219.509 6.64677C219.608 6.70429 219.691 6.78099 219.761 6.87047C219.828 6.95994 219.879 7.0654 219.908 7.17405C219.937 7.2827 219.943 7.39774 219.927 7.50959C219.911 7.62143 219.873 7.73008 219.816 7.82915C219.758 7.92821 219.681 8.0113 219.592 8.0816L201.233 21.8642C201.083 21.9761 200.904 22.0368 200.715 22.0368L200.712 22.0432Z" fill="#1AAB0E"/>
<path d="M174.975 1.86305L180.775 1.03858C185.213 0.405855 189.719 1.56586 193.301 4.25656C196.887 6.94726 199.255 10.9513 199.884 15.39L200.709 21.1901L194.909 22.0145C190.47 22.6473 185.964 21.4873 182.382 18.7966C178.797 16.1059 176.429 12.1018 175.799 7.66307L174.975 1.86305Z" fill="white"/>
<path d="M192.496 23.0402C188.223 23.0306 184.101 21.4807 180.876 18.6782C177.652 15.8757 175.549 12.0058 174.945 7.778L174.121 1.98117C174.105 1.86932 174.111 1.75428 174.14 1.64563C174.169 1.53698 174.217 1.43153 174.287 1.34205C174.354 1.25257 174.44 1.17588 174.539 1.11836C174.639 1.06084 174.744 1.02249 174.859 1.00651L180.659 0.182046C182.969 -0.147101 185.321 -0.0160817 187.581 0.562323C189.84 1.14073 191.962 2.16012 193.828 3.56299C195.694 4.96267 197.267 6.71706 198.452 8.72709C199.641 10.7339 200.421 12.9581 200.75 15.2653L201.574 21.0621C201.606 21.289 201.549 21.5191 201.411 21.7012C201.274 21.8834 201.069 22.0048 200.843 22.0368L195.042 22.8644C194.202 22.9827 193.352 23.0434 192.502 23.0434L192.496 23.0402ZM175.952 2.59153L176.655 7.53513C177.901 16.2879 186.037 22.3979 194.79 21.1516L199.734 20.4486L199.031 15.505C197.781 6.75221 189.645 0.642213 180.896 1.8885L175.952 2.59153Z" fill="#1AAB0E"/>
<path d="M200.712 22.0432C200.523 22.0432 200.344 21.9825 200.194 21.8706L181.835 8.088C181.746 8.02089 181.669 7.93461 181.612 7.83555C181.554 7.73649 181.516 7.63103 181.5 7.51599C181.468 7.2891 181.525 7.05902 181.663 6.87687C181.8 6.69472 182.005 6.57329 182.232 6.54133C182.459 6.50937 182.689 6.56689 182.871 6.70431L201.229 20.4869C201.373 20.5956 201.482 20.749 201.536 20.9215C201.591 21.0941 201.587 21.2795 201.53 21.452C201.472 21.6246 201.364 21.7748 201.214 21.8802C201.067 21.9857 200.891 22.0432 200.709 22.0432H200.712Z" fill="#1AAB0E"/>
<path d="M200.712 65.1584C200.482 65.1584 200.265 65.0433 200.102 64.842C199.939 64.6407 199.85 64.3659 199.85 64.0783V20.4263C199.85 20.1387 199.939 19.8671 200.102 19.6626C200.265 19.4612 200.482 19.3462 200.712 19.3462C200.943 19.3462 201.16 19.4612 201.323 19.6626C201.486 19.8639 201.575 20.1387 201.575 20.4263V64.0783C201.575 64.3659 201.486 64.6375 201.323 64.842C201.16 65.0433 200.943 65.1584 200.712 65.1584Z" fill="#1AAB0E"/>
<path d="M200.71 221.992C248.542 221.992 287.317 183.217 287.317 135.385C287.317 87.553 248.542 48.7776 200.71 48.7776C152.878 48.7776 114.103 87.553 114.103 135.385C114.103 183.217 152.878 221.992 200.71 221.992Z" fill="#1AAB0E"/>
<path d="M175.397 137.849C189.857 137.849 201.579 121.586 201.579 101.524C201.579 81.463 189.857 65.2 175.397 65.2C160.938 65.2 149.216 81.463 149.216 101.524C149.216 121.586 160.938 137.849 175.397 137.849Z" fill="white" stroke="black" stroke-width="1.5978" stroke-miterlimit="10"/>
<path d="M183.801 130.684C193.158 130.684 200.744 120.16 200.744 107.177C200.744 94.1948 193.158 83.6704 183.801 83.6704C174.443 83.6704 166.857 94.1948 166.857 107.177C166.857 120.16 174.443 130.684 183.801 130.684Z" fill="black"/>
<path d="M188.93 95.4625C190.626 95.4625 192.001 94.0876 192.001 92.3915C192.001 90.6955 190.626 89.3206 188.93 89.3206C187.234 89.3206 185.859 90.6955 185.859 92.3915C185.859 94.0876 187.234 95.4625 188.93 95.4625Z" fill="white"/>
<path d="M193.72 100.438C194.672 100.438 195.443 99.6666 195.443 98.7154C195.443 97.7641 194.672 96.9929 193.72 96.9929C192.769 96.9929 191.998 97.7641 191.998 98.7154C191.998 99.6666 192.769 100.438 193.72 100.438Z" fill="white"/>
<path d="M227.757 137.849C242.216 137.849 253.938 121.586 253.938 101.524C253.938 81.463 242.216 65.2 227.757 65.2C213.297 65.2 201.575 81.463 201.575 101.524C201.575 121.586 213.297 137.849 227.757 137.849Z" fill="white" stroke="black" stroke-width="1.5978" stroke-miterlimit="10"/>
<path d="M219.375 130.684C228.732 130.684 236.318 120.16 236.318 107.177C236.318 94.1948 228.732 83.6704 219.375 83.6704C210.017 83.6704 202.432 94.1948 202.432 107.177C202.432 120.16 210.017 130.684 219.375 130.684Z" fill="black"/>
<path d="M226.277 94.2033C227.461 94.2033 228.421 93.2433 228.421 92.059C228.421 90.8748 227.461 89.9148 226.277 89.9148C225.093 89.9148 224.133 90.8748 224.133 92.059C224.133 93.2433 225.093 94.2033 226.277 94.2033Z" fill="white"/>
<path d="M137.322 138.83C133.311 137.865 131.119 144.857 130.512 148.676C129.349 146.768 128.09 144.93 126.741 143.256C118.423 132.921 109.13 129.432 105.433 131.01C101.735 132.592 98.3417 138.274 105.538 144.761C107.778 146.781 113.118 150.385 115.199 153.571C112.444 151.97 110.038 150.698 108.625 149.896C103.905 147.215 97.3415 144.077 92.5481 146.301C87.7547 148.525 90.7681 156.102 95.4529 158.547C97.3543 159.541 101.231 161.589 105.164 163.679C99.5209 161.819 94.0277 161.535 93.0977 165.507C91.4168 172.691 100.342 174.566 109.491 178.954C118.64 183.341 127.454 191.094 133.915 186.039C142.153 182.328 145.311 175.004 143.841 166.731C142.371 158.457 142.208 154.003 143.515 150.13C144.822 146.253 142.029 139.961 137.322 138.83Z" fill="white" stroke="black" stroke-width="1.5978" stroke-linecap="round" stroke-linejoin="round"/>
<path d="M250.352 144.853C254.104 143.14 257.593 149.586 258.92 153.216C259.696 151.123 260.581 149.078 261.585 147.177C267.775 135.442 275.22 131.671 279.151 132.515C283.082 133.359 286.74 138.405 280.915 146.148C279.103 148.557 277.598 151.797 274.885 155.098C277.281 152.999 279.403 151.292 280.634 150.235C284.753 146.7 290.598 142.367 295.727 143.636C300.855 144.904 299.347 152.916 295.215 156.21C293.538 157.546 290.128 160.301 286.664 163.103C291.847 160.199 297.187 158.869 298.858 162.592C301.881 169.322 293.477 172.869 285.334 178.922C277.192 184.977 270.021 194.27 262.716 190.541C253.922 188.473 249.422 181.887 249.285 173.486C249.147 165.085 249.451 160.352 247.428 156.798C245.405 153.245 245.945 146.863 250.352 144.853Z" fill="white" stroke="black" stroke-width="1.5978" stroke-linecap="round" stroke-linejoin="round"/>
<path d="M286.664 163.104C286.664 163.104 279.631 167.808 276.78 169.78L286.664 163.104Z" fill="white"/>
<path d="M286.664 163.104C286.664 163.104 279.631 167.808 276.78 169.78" stroke="black" stroke-width="1.5978" stroke-linecap="round" stroke-linejoin="round"/>
<path d="M208.587 149.724C208.587 156.259 205.062 161.557 200.713 161.557C196.364 161.557 192.839 156.259 192.839 149.724C192.839 143.189 208.587 143.189 208.587 149.724Z" fill="#F2F6C4" stroke="black" stroke-width="1.5978" stroke-linecap="round" stroke-linejoin="round"/>
</g>
<defs>
<clipPath id="clip0_564_4318">
<rect width="210.964" height="271" fill="white" transform="translate(89.3232)"/>
</clipPath>
</defs>
</svg>
