<svg width="390" height="272" viewBox="0 0 390 272" fill="none" xmlns="http://www.w3.org/2000/svg">
<path d="M179.619 28.6401L174.25 28.6269L174.263 23.2581C174.267 21.2229 174.673 19.2109 175.456 17.331C176.239 15.4544 177.382 13.7463 178.826 12.3124C180.266 10.8785 181.978 9.7387 183.858 8.9656C185.738 8.1925 187.753 7.79603 189.788 7.79934L195.157 7.81255L195.144 13.1813C195.134 17.2913 193.492 21.2262 190.581 24.1237C187.67 27.0212 183.725 28.6467 179.615 28.6368L179.619 28.6401Z" fill="white"/>
<path d="M181.948 29.268C181.175 29.3771 180.399 29.4299 179.619 29.4266L174.25 29.4134C174.039 29.4134 173.84 29.3275 173.692 29.1788C173.543 29.0302 173.46 28.8286 173.46 28.6172L173.474 23.2484C173.477 21.1108 173.903 18.993 174.726 17.0206C175.548 15.0482 176.751 13.2542 178.268 11.7444C179.784 10.2345 181.581 9.04181 183.557 8.22575C185.536 7.413 187.654 6.99672 189.791 7.00002L195.16 7.01323C195.266 7.01323 195.368 7.03306 195.464 7.0727C195.56 7.11235 195.646 7.17182 195.722 7.24451C195.795 7.31719 195.854 7.40639 195.894 7.50221C195.933 7.59802 195.953 7.70044 195.953 7.80616L195.94 13.1749C195.93 17.09 194.509 20.8696 191.942 23.8266C189.372 26.7802 185.827 28.7097 181.948 29.2614V29.268ZM175.046 27.8342L179.622 27.8441C187.73 27.8639 194.338 21.2826 194.354 13.1782L194.364 8.59909L189.788 8.58587C187.859 8.57926 185.946 8.9559 184.158 9.68936C182.371 10.4228 180.749 11.5032 179.381 12.8644C178.013 14.2256 176.926 15.8445 176.183 17.6252C175.439 19.406 175.056 21.3189 175.05 23.2484L175.043 27.8276L175.046 27.8342Z" fill="#1AAB0E"/>
<path d="M174.363 29.4069C174.197 29.43 174.029 29.4003 173.883 29.3243C173.738 29.2483 173.616 29.1261 173.543 28.9774C173.47 28.8287 173.444 28.6602 173.47 28.495C173.497 28.3298 173.576 28.1779 173.692 28.0622L188.605 13.2147C188.678 13.142 188.767 13.0825 188.863 13.0429C188.959 13.0032 189.061 12.9834 189.167 12.9834C189.27 12.9834 189.375 13.0032 189.471 13.0462C189.567 13.0858 189.653 13.1453 189.729 13.218C189.801 13.2907 189.861 13.3799 189.901 13.4757C189.94 13.5715 189.96 13.6739 189.96 13.7796C189.96 13.882 189.94 13.9878 189.901 14.0836C189.861 14.1794 189.801 14.2653 189.729 14.3413L174.815 29.1888C174.693 29.3111 174.538 29.3871 174.369 29.4135L174.363 29.4069Z" fill="#1AAB0E"/>
<path d="M148.43 14.3576L153.591 12.8709C157.539 11.7344 161.778 12.2101 165.372 14.1991C168.967 16.188 171.627 19.5216 172.766 23.4697L174.253 28.6303L169.093 30.1171C165.144 31.2536 160.906 30.7778 157.311 28.7889C153.716 26.8 151.057 23.4664 149.917 19.5183L148.43 14.3576Z" fill="white"/>
<path d="M167.028 31.3561C163.149 31.8913 159.208 31.0092 155.927 28.8749C152.646 26.7406 150.241 23.4962 149.158 19.7331L147.671 14.5758C147.641 14.4767 147.635 14.3709 147.644 14.2685C147.654 14.1661 147.687 14.0637 147.737 13.9745C147.786 13.882 147.856 13.8027 147.935 13.7366C148.018 13.6705 148.11 13.6243 148.209 13.5945L153.37 12.1078C155.425 11.5164 157.576 11.3347 159.7 11.5726C161.825 11.8104 163.883 12.4679 165.753 13.502C167.626 14.5361 169.275 15.9304 170.606 17.6021C171.941 19.2739 172.932 21.1934 173.524 23.2484L175.01 28.4057C175.07 28.6073 175.043 28.8253 174.941 29.007C174.839 29.192 174.67 29.3275 174.468 29.3837L169.308 30.8704C168.558 31.0852 167.795 31.2471 167.025 31.3561H167.028ZM149.412 14.8929L150.681 19.2904C152.924 27.0776 161.088 31.5873 168.875 29.344L173.272 28.0786L172.004 23.6812C169.757 15.894 161.597 11.3809 153.809 13.6276L149.412 14.8929Z" fill="#1AAB0E"/>
<path d="M174.363 29.4067C174.194 29.4298 174.019 29.3968 173.87 29.3142L155.451 19.135C155.359 19.0855 155.28 19.0161 155.217 18.9368C155.151 18.8542 155.104 18.7617 155.075 18.6626C155.015 18.461 155.042 18.243 155.144 18.0613C155.247 17.8762 155.415 17.7408 155.617 17.6846C155.818 17.6252 156.036 17.6516 156.218 17.754L174.637 27.9332C174.782 28.0125 174.898 28.138 174.971 28.2867C175.043 28.4354 175.063 28.6072 175.033 28.7691C175.004 28.931 174.921 29.0829 174.802 29.1986C174.683 29.3142 174.528 29.3869 174.363 29.41V29.4067Z" fill="#1AAB0E"/>
<path d="M174.749 68.934C174.538 68.934 174.336 68.8349 174.184 68.6499C174.032 68.4649 173.946 68.2171 173.943 67.9528L173.451 27.9397C173.451 27.6787 173.527 27.4243 173.675 27.2393C173.821 27.051 174.022 26.9453 174.23 26.942C174.439 26.9387 174.643 27.0411 174.795 27.2261C174.947 27.4111 175.033 27.6589 175.037 27.9232L175.529 67.9363C175.529 68.1973 175.453 68.4517 175.304 68.64C175.159 68.8283 174.957 68.934 174.749 68.9373V68.934Z" fill="#1AAB0E"/>
<path d="M284.715 178.553C283.38 176.452 281.722 173.082 280.436 170.33C283.132 170.416 286.258 169.834 287.669 167.069C290.404 161.71 284.223 158.921 278.371 156.787C272.52 154.653 263.825 145.085 254.418 149.023C249.988 150.992 244.411 158.264 249.717 167.944C255.023 177.625 254.418 182.382 258.905 185.99C261.935 188.428 264.304 186.624 265.519 185.194C267.683 187.758 269.775 189.188 271.38 189.38C273.274 189.608 275.299 188.23 276.938 186.68C280.43 189.717 283.843 190.883 286.248 189.707C290.949 187.411 287.285 182.597 284.718 178.55L284.715 178.553Z" fill="white" stroke="black" stroke-width="1.65193" stroke-linecap="round" stroke-linejoin="round"/>
<path d="M276.934 186.684C276.934 186.684 271.016 181.877 266.913 173.799L276.934 186.684Z" fill="white"/>
<path d="M276.934 186.684C276.934 186.684 271.016 181.877 266.913 173.799" stroke="black" stroke-width="1.65193" stroke-linecap="round" stroke-linejoin="round"/>
<path d="M265.516 185.197C265.516 185.197 260.967 180.073 257.726 172.484L265.516 185.197Z" fill="white"/>
<path d="M265.516 185.197C265.516 185.197 260.967 180.073 257.726 172.484" stroke="black" stroke-width="1.65193" stroke-linecap="round" stroke-linejoin="round"/>
<path d="M219.728 196.82C216.394 197.299 214.082 200.392 214.564 203.725L220.29 243.461L232.359 241.723L226.633 201.987C226.154 198.654 223.062 196.341 219.728 196.823V196.82Z" fill="white" stroke="black" stroke-width="1.65193" stroke-linecap="round" stroke-linejoin="round"/>
<path d="M187.102 215.741C234.669 215.741 273.23 177.18 273.23 129.613C273.23 82.0453 234.669 43.4844 187.102 43.4844C139.535 43.4844 100.974 82.0453 100.974 129.613C100.974 177.18 139.535 215.741 187.102 215.741Z" fill="#1AAB0E" stroke="url(#paint0_radial_554_3981)" stroke-width="1.65193" stroke-linecap="round" stroke-linejoin="round"/>
<path d="M201.61 98.4113C203.126 120.501 214.769 131.301 228.156 130.379C241.543 129.458 251.604 117.171 250.087 95.0843C248.571 72.998 235.345 62.1944 221.958 63.1161C208.571 64.0346 200.093 76.325 201.606 98.4113H201.61Z" fill="white" stroke="black" stroke-width="1.65193" stroke-linecap="round" stroke-linejoin="round"/>
<path d="M220.36 109.422C229.023 108.827 235.377 98.6 234.551 86.58C233.725 74.5601 226.033 65.2984 217.37 65.8936C208.706 66.4887 202.353 76.7153 203.179 88.7353C204.005 100.755 211.697 110.017 220.36 109.422Z" fill="black"/>
<path d="M224.291 75.2247C225.391 75.2247 226.283 74.3327 226.283 73.2325C226.283 72.1322 225.391 71.2402 224.291 71.2402C223.19 71.2402 222.298 72.1322 222.298 73.2325C222.298 74.3327 223.19 75.2247 224.291 75.2247Z" fill="white"/>
<path d="M201.276 101.477C202.872 124.753 193.908 137.757 179.804 138.725C165.696 139.693 151.791 128.258 150.195 104.983C148.599 81.7069 159.198 68.7591 173.305 67.7911C187.413 66.8231 199.68 78.2015 201.279 101.477H201.276Z" fill="white" stroke="black" stroke-width="1.65193" stroke-linecap="round" stroke-linejoin="round"/>
<path d="M182.449 115.79C191.578 115.163 198.274 104.387 197.403 91.7204C196.533 79.0542 188.427 69.2946 179.298 69.9218C170.169 70.549 163.473 81.3254 164.344 93.9916C165.214 106.658 173.32 116.417 182.449 115.79Z" fill="black"/>
<path d="M184.882 81.0955C186.541 81.0955 187.885 79.7509 187.885 78.0923C187.885 76.4337 186.541 75.0891 184.882 75.0891C183.223 75.0891 181.879 76.4337 181.879 78.0923C181.879 79.7509 183.223 81.0955 184.882 81.0955Z" fill="white"/>
<path d="M189.98 85.6253C190.909 85.6253 191.662 84.8724 191.662 83.9436C191.662 83.0149 190.909 82.262 189.98 82.262C189.051 82.262 188.298 83.0149 188.298 83.9436C188.298 84.8724 189.051 85.6253 189.98 85.6253Z" fill="white"/>
<path d="M217.29 135.243L224.178 135.573" stroke="black" stroke-width="1.65193" stroke-linecap="round" stroke-linejoin="round"/>
<path d="M204.18 153.473C206.007 151.61 207.953 149.39 209.469 147.071C213.46 140.968 211.062 132.068 205.901 132.702C200.737 133.336 197.582 141.546 193.967 145.23C193.022 146.192 191.717 147.196 190.3 148.157C181.614 148.445 173.959 154.673 172.215 163.563C170.186 173.911 176.929 183.942 187.277 185.97C197.625 187.999 207.655 181.256 209.684 170.908C210.979 164.3 208.693 157.821 204.176 153.473H204.18Z" fill="white" stroke="black" stroke-width="1.65193" stroke-linecap="round" stroke-linejoin="round"/>
<path d="M198.09 163.396C198.82 159.676 195.172 155.828 189.944 154.804C184.715 153.779 179.885 155.964 179.156 159.685C178.427 163.406 182.074 167.253 187.303 168.278C192.531 169.303 197.361 167.117 198.09 163.396Z" fill="white" stroke="black" stroke-width="1.65193" stroke-linecap="round" stroke-linejoin="round"/>
<path d="M182.173 197.392C178.985 196.311 175.522 198.023 174.442 201.214L161.573 239.242L173.124 243.15L185.992 205.123C187.072 201.934 185.361 198.472 182.17 197.392H182.173Z" fill="white" stroke="black" stroke-width="1.65193" stroke-linecap="round" stroke-linejoin="round"/>
<path d="M153.142 146.4L150.033 150.338" stroke="black" stroke-width="1.65193" stroke-linecap="round" stroke-linejoin="round"/>
<path d="M155.002 149.789L160.143 146.4L158.831 149.789L165.938 146.4" stroke="black" stroke-width="1.65193" stroke-linecap="round" stroke-linejoin="round"/>
<path d="M159.158 235.099C167.246 237.451 182.209 243.015 179.408 259.917L126.84 243.494C126.84 243.494 129.083 226.347 159.158 235.099Z" fill="#BDBDBD"/>
<path d="M126.84 243.493C128.35 238.366 137.772 237.556 153.558 242.208C169.344 246.86 180.918 254.789 179.404 259.917C177.891 265.044 163.87 265.431 148.084 260.776C132.298 256.121 125.327 248.618 126.837 243.49L126.84 243.493Z" fill="black" stroke="black" stroke-width="1.65193" stroke-miterlimit="10"/>
<path d="M210.233 258.338H269.402C269.402 258.338 270.439 238.488 244.685 236.793C218.928 235.098 211.439 245.542 210.233 248.604C209.027 251.667 210.233 258.338 210.233 258.338Z" fill="#BDBDBD"/>
<defs>
<radialGradient id="paint0_radial_554_3981" cx="0" cy="0" r="1" gradientUnits="userSpaceOnUse" gradientTransform="translate(187.102 129.613) rotate(88.8601) scale(95.4062)">
<stop stop-color="#313333"/>
<stop offset="1" stop-color="#313333" stop-opacity="0"/>
</radialGradient>
</defs>
</svg>
